<?xml version="1.0" encoding="UTF-8" standalone="no"?>
<!DOCTYPE svg PUBLIC "-//W3C//DTD SVG 1.1//EN" "http://www.w3.org/Graphics/SVG/1.1/DTD/svg11.dtd">
<svg width="100%" height="100%" viewBox="0 0 362 362" version="1.1" xmlns="http://www.w3.org/2000/svg" xmlns:xlink="http://www.w3.org/1999/xlink" xml:space="preserve" xmlns:serif="http://www.serif.com/" style="fill-rule:evenodd;clip-rule:evenodd;stroke-linejoin:round;stroke-miterlimit:2;">
    <g transform="matrix(1,0,0,1,-1052.89,-708.708)">
        <g transform="matrix(1,0,0,1,1282.85,762.437)">
            <path d="M0,253.796C-14.894,239.091 -30.84,229.781 -44.733,223.682C-46.176,221.412 -48.676,219.362 -52.319,217.329C-54.734,215.981 -57.373,215.031 -59.762,213.645C-60.242,213.366 -60.485,211.493 -60.099,211.12C-58.512,209.588 -56.663,208.321 -54.868,207.013C-49.138,202.836 -43.437,198.614 -37.614,194.569C-36.048,193.481 -34.158,192.552 -32.301,192.246C-24.843,191.014 -22.375,185.035 -19.749,179.298C-18.922,177.493 -18.419,176.877 -16.508,177.887C-11.111,180.739 -5.489,183.196 -0.255,186.312C1.996,187.652 3.772,190.053 5.313,192.283C21.05,215.054 38.871,236.106 57.751,256.271C46.058,265.967 33.033,274.107 18.997,280.38C16.638,274.173 11.754,265.401 0,253.796M-217.352,126.898C-217.352,34.253 -141.979,-41.12 -49.334,-41.12C43.312,-41.12 118.685,34.253 118.685,126.898C118.685,157.482 110.466,186.18 96.128,210.909C85.412,199.118 74.835,187.189 63.71,175.796C52.925,164.753 42.738,153.453 34.094,140.521C25.879,128.232 15.934,117.081 6.516,105.621C1.062,98.982 -5.117,92.935 -10.508,86.249C-25.588,67.547 -42.107,50.493 -62.918,38.027C-66.354,35.969 -69.531,33.434 -72.658,30.91C-79.718,25.211 -79.328,13.752 -71.655,8.885C-67.374,6.171 -62.663,3.988 -57.906,2.207C-50.392,-0.608 -42.675,-2.88 -35.046,-5.387C-30.269,-6.957 -29.95,-7.96 -34.104,-11.488C-36.804,-13.779 -39.959,-16.135 -43.283,-16.962C-49.534,-18.516 -56.044,-19.632 -62.467,-19.735C-70.049,-19.858 -77.178,-20.415 -84.267,-23.72C-99.907,-31.013 -114.435,-28.507 -127.656,-17.418C-136.155,-10.289 -141.633,-0.969 -146.99,8.433C-151.721,16.738 -155.744,25.465 -160.775,33.573C-164.631,39.787 -164.917,40.536 -159.741,45.916C-158.02,47.705 -156.114,50.053 -155.834,52.335C-155.321,56.519 -156.102,60.844 -156.081,65.11C-155.997,82.097 -151.349,97.669 -141.029,111.289C-139.249,113.638 -136.563,115.332 -134.186,117.186C-132.597,118.426 -130.279,119.046 -129.212,120.584C-125.433,126.03 -121.819,131.621 -118.561,137.393C-107.103,157.685 -91.299,173.432 -70.079,183.218C-65.182,185.476 -62.166,188.177 -61.021,193.362C-60.386,196.244 -60.75,197.94 -63.772,199.2C-67.957,200.944 -71.877,203.317 -75.949,205.342C-77.178,205.953 -78.5,206.532 -79.838,206.736C-84.851,207.503 -89.928,207.897 -94.896,208.869C-95.686,209.024 -96.479,209.291 -97.263,209.605C-111.027,208.904 -118.342,212.365 -121.857,214.478C-125.689,216.781 -129.061,219.88 -129.061,219.88C-139.482,229.505 -139.995,239.431 -145.719,247.793C-147.77,250.79 -150.849,254.041 -155.562,256.972C-193.251,226.135 -217.352,179.28 -217.352,126.898M-49.334,-53.729C-148.931,-53.729 -229.96,27.3 -229.96,126.898C-229.96,226.496 -148.931,307.525 -49.334,307.525C50.265,307.525 131.294,226.496 131.294,126.898C131.294,27.3 50.265,-53.729 -49.334,-53.729" style="fill-rule:nonzero;"/>
        </g>
    </g>
</svg>
